<mxfile host="www.draw.io" modified="2019-12-16T06:50:15.893Z" agent="Mozilla/5.0 (Windows NT 10.0; Win64; x64) AppleWebKit/537.36 (KHTML, like Gecko) Chrome/78.0.3904.108 Safari/537.36" etag="8_EhXkXIbBUmdIFhGb_w" version="12.4.2" type="github" pages="1">
  <diagram id="LtNvV_Q8aPqqT5u1wBzz" name="Page-1">
    <mxGraphModel dx="1422" dy="772" grid="1" gridSize="10" guides="1" tooltips="1" connect="1" arrows="1" fold="1" page="1" pageScale="1" pageWidth="1169" pageHeight="827" math="0" shadow="0">
      <root>
        <mxCell id="0"/>
        <mxCell id="1" parent="0"/>
        <mxCell id="V_cz3rUaaJLSFiW3fjFY-47" style="edgeStyle=orthogonalEdgeStyle;rounded=0;orthogonalLoop=1;jettySize=auto;html=1;exitX=0;exitY=0.5;exitDx=0;exitDy=0;entryX=0.5;entryY=0;entryDx=0;entryDy=0;" edge="1" parent="1" source="V_cz3rUaaJLSFiW3fjFY-81" target="V_cz3rUaaJLSFiW3fjFY-86">
          <mxGeometry relative="1" as="geometry">
            <mxPoint x="70" y="210" as="targetPoint"/>
          </mxGeometry>
        </mxCell>
        <mxCell id="V_cz3rUaaJLSFiW3fjFY-78" value="&lt;span style=&quot;background-color: rgb(248 , 249 , 250)&quot;&gt;購読ブログ&lt;/span&gt;&lt;br style=&quot;background-color: rgb(248 , 249 , 250)&quot;&gt;&lt;span style=&quot;background-color: rgb(248 , 249 , 250)&quot;&gt;新着一覧&lt;/span&gt;" style="text;html=1;align=center;verticalAlign=middle;resizable=0;points=[];;labelBackgroundColor=#ffffff;" vertex="1" connectable="0" parent="V_cz3rUaaJLSFiW3fjFY-47">
          <mxGeometry x="-0.6125" y="1" relative="1" as="geometry">
            <mxPoint x="-89" y="53" as="offset"/>
          </mxGeometry>
        </mxCell>
        <mxCell id="V_cz3rUaaJLSFiW3fjFY-120" style="edgeStyle=none;rounded=0;orthogonalLoop=1;jettySize=auto;html=1;entryX=1;entryY=0.5;entryDx=0;entryDy=0;" edge="1" parent="1" source="V_cz3rUaaJLSFiW3fjFY-4" target="V_cz3rUaaJLSFiW3fjFY-43">
          <mxGeometry relative="1" as="geometry"/>
        </mxCell>
        <mxCell id="V_cz3rUaaJLSFiW3fjFY-4" value="記事編集者" style="shape=image;html=1;verticalAlign=top;verticalLabelPosition=bottom;labelBackgroundColor=#ffffff;imageAspect=0;aspect=fixed;image=https://cdn2.iconfinder.com/data/icons/people-80/96/Picture1-128.png" vertex="1" parent="1">
          <mxGeometry x="1080" y="440" width="40" height="40" as="geometry"/>
        </mxCell>
        <mxCell id="V_cz3rUaaJLSFiW3fjFY-129" style="edgeStyle=none;rounded=0;orthogonalLoop=1;jettySize=auto;html=1;entryX=1;entryY=0.5;entryDx=0;entryDy=0;fillColor=#0050ef;strokeColor=#001DBC;" edge="1" parent="1" source="V_cz3rUaaJLSFiW3fjFY-22" target="V_cz3rUaaJLSFiW3fjFY-84">
          <mxGeometry relative="1" as="geometry">
            <mxPoint x="530" y="660" as="targetPoint"/>
          </mxGeometry>
        </mxCell>
        <mxCell id="V_cz3rUaaJLSFiW3fjFY-156" value="Read" style="text;html=1;align=center;verticalAlign=middle;resizable=0;points=[];;labelBackgroundColor=#ffffff;fontColor=#0000FF;" vertex="1" connectable="0" parent="V_cz3rUaaJLSFiW3fjFY-129">
          <mxGeometry x="-0.4704" relative="1" as="geometry">
            <mxPoint as="offset"/>
          </mxGeometry>
        </mxCell>
        <mxCell id="V_cz3rUaaJLSFiW3fjFY-131" style="edgeStyle=none;rounded=0;orthogonalLoop=1;jettySize=auto;html=1;entryX=0;entryY=0.75;entryDx=0;entryDy=0;fillColor=#0050ef;strokeColor=#001DBC;" edge="1" parent="1" source="V_cz3rUaaJLSFiW3fjFY-22" target="V_cz3rUaaJLSFiW3fjFY-44">
          <mxGeometry relative="1" as="geometry"/>
        </mxCell>
        <mxCell id="V_cz3rUaaJLSFiW3fjFY-157" value="Read" style="text;html=1;align=center;verticalAlign=middle;resizable=0;points=[];;labelBackgroundColor=#ffffff;fontColor=#0000FF;" vertex="1" connectable="0" parent="V_cz3rUaaJLSFiW3fjFY-131">
          <mxGeometry x="-0.3291" y="1" relative="1" as="geometry">
            <mxPoint as="offset"/>
          </mxGeometry>
        </mxCell>
        <mxCell id="V_cz3rUaaJLSFiW3fjFY-22" value="tribe_entry_xx" style="shadow=0;dashed=0;html=1;strokeColor=none;fillColor=#505050;labelPosition=center;verticalLabelPosition=bottom;verticalAlign=top;outlineConnect=0;align=center;shape=mxgraph.office.databases.database;" vertex="1" parent="1">
          <mxGeometry x="720" y="495.5" width="60" height="44.5" as="geometry"/>
        </mxCell>
        <mxCell id="V_cz3rUaaJLSFiW3fjFY-123" style="edgeStyle=none;rounded=0;orthogonalLoop=1;jettySize=auto;html=1;fillColor=#a20025;strokeColor=#6F0000;" edge="1" parent="1" source="V_cz3rUaaJLSFiW3fjFY-43" target="V_cz3rUaaJLSFiW3fjFY-22">
          <mxGeometry relative="1" as="geometry"/>
        </mxCell>
        <mxCell id="V_cz3rUaaJLSFiW3fjFY-161" value="Create/Update" style="text;html=1;align=center;verticalAlign=middle;resizable=0;points=[];;labelBackgroundColor=#ffffff;fontColor=#CC0000;" vertex="1" connectable="0" parent="V_cz3rUaaJLSFiW3fjFY-123">
          <mxGeometry x="-0.1386" relative="1" as="geometry">
            <mxPoint as="offset"/>
          </mxGeometry>
        </mxCell>
        <mxCell id="V_cz3rUaaJLSFiW3fjFY-124" style="edgeStyle=none;rounded=0;orthogonalLoop=1;jettySize=auto;html=1;fillColor=#a20025;strokeColor=#6F0000;" edge="1" parent="1" source="V_cz3rUaaJLSFiW3fjFY-43" target="V_cz3rUaaJLSFiW3fjFY-80">
          <mxGeometry relative="1" as="geometry"/>
        </mxCell>
        <mxCell id="V_cz3rUaaJLSFiW3fjFY-162" value="Create/Update" style="text;html=1;align=center;verticalAlign=middle;resizable=0;points=[];;labelBackgroundColor=#ffffff;fontColor=#CC0000;" vertex="1" connectable="0" parent="V_cz3rUaaJLSFiW3fjFY-124">
          <mxGeometry x="0.4507" y="-2" relative="1" as="geometry">
            <mxPoint as="offset"/>
          </mxGeometry>
        </mxCell>
        <mxCell id="V_cz3rUaaJLSFiW3fjFY-43" value="編集面&lt;br&gt;エディタ" style="rounded=1;whiteSpace=wrap;html=1;absoluteArcSize=1;arcSize=14;strokeWidth=2;" vertex="1" parent="1">
          <mxGeometry x="940" y="420" width="80" height="80" as="geometry"/>
        </mxCell>
        <mxCell id="V_cz3rUaaJLSFiW3fjFY-130" style="edgeStyle=none;rounded=0;orthogonalLoop=1;jettySize=auto;html=1;fillColor=#a20025;strokeColor=#6F0000;" edge="1" parent="1" source="V_cz3rUaaJLSFiW3fjFY-44" target="V_cz3rUaaJLSFiW3fjFY-80">
          <mxGeometry relative="1" as="geometry"/>
        </mxCell>
        <mxCell id="V_cz3rUaaJLSFiW3fjFY-160" value="Create/Update" style="text;html=1;align=center;verticalAlign=middle;resizable=0;points=[];;labelBackgroundColor=#ffffff;fontColor=#CC0000;" vertex="1" connectable="0" parent="V_cz3rUaaJLSFiW3fjFY-130">
          <mxGeometry x="-0.1412" y="-1" relative="1" as="geometry">
            <mxPoint as="offset"/>
          </mxGeometry>
        </mxCell>
        <mxCell id="V_cz3rUaaJLSFiW3fjFY-44" value="&lt;span style=&quot;background-color: rgb(248 , 249 , 250)&quot;&gt;新着更新バッチ&lt;/span&gt;&lt;br style=&quot;background-color: rgb(248 , 249 , 250)&quot;&gt;&lt;span style=&quot;background-color: rgb(248 , 249 , 250)&quot;&gt;(予約記事公開分)&lt;/span&gt;" style="shape=image;html=1;verticalAlign=top;verticalLabelPosition=bottom;labelBackgroundColor=#ffffff;imageAspect=0;aspect=fixed;image=https://cdn2.iconfinder.com/data/icons/ecqlipse2/FILE---BATCH.png" vertex="1" parent="1">
          <mxGeometry x="950" y="204" width="60" height="60" as="geometry"/>
        </mxCell>
        <mxCell id="V_cz3rUaaJLSFiW3fjFY-65" style="rounded=0;orthogonalLoop=1;jettySize=auto;html=1;entryX=0.5;entryY=1;entryDx=0;entryDy=0;exitX=0;exitY=0.5;exitDx=0;exitDy=0;edgeStyle=orthogonalEdgeStyle;" edge="1" parent="1" source="V_cz3rUaaJLSFiW3fjFY-84" target="V_cz3rUaaJLSFiW3fjFY-86">
          <mxGeometry relative="1" as="geometry">
            <mxPoint x="160" y="395" as="sourcePoint"/>
            <mxPoint x="80" y="257.5" as="targetPoint"/>
          </mxGeometry>
        </mxCell>
        <mxCell id="V_cz3rUaaJLSFiW3fjFY-85" value="&lt;span style=&quot;background-color: rgb(248 , 249 , 250)&quot;&gt;通知&lt;/span&gt;" style="text;html=1;align=center;verticalAlign=middle;resizable=0;points=[];;labelBackgroundColor=#ffffff;" vertex="1" connectable="0" parent="V_cz3rUaaJLSFiW3fjFY-65">
          <mxGeometry x="-0.1707" y="-1" relative="1" as="geometry">
            <mxPoint y="1" as="offset"/>
          </mxGeometry>
        </mxCell>
        <mxCell id="V_cz3rUaaJLSFiW3fjFY-117" style="edgeStyle=none;rounded=0;orthogonalLoop=1;jettySize=auto;html=1;entryX=1;entryY=0.5;entryDx=0;entryDy=0;fillColor=#0050ef;strokeColor=#001DBC;" edge="1" parent="1" source="V_cz3rUaaJLSFiW3fjFY-79" target="V_cz3rUaaJLSFiW3fjFY-115">
          <mxGeometry relative="1" as="geometry"/>
        </mxCell>
        <mxCell id="V_cz3rUaaJLSFiW3fjFY-152" value="Read" style="text;html=1;align=center;verticalAlign=middle;resizable=0;points=[];;labelBackgroundColor=#ffffff;fontColor=#0000FF;" vertex="1" connectable="0" parent="V_cz3rUaaJLSFiW3fjFY-117">
          <mxGeometry x="0.1954" y="-1" relative="1" as="geometry">
            <mxPoint as="offset"/>
          </mxGeometry>
        </mxCell>
        <mxCell id="V_cz3rUaaJLSFiW3fjFY-125" style="edgeStyle=none;rounded=0;orthogonalLoop=1;jettySize=auto;html=1;entryX=1;entryY=0.5;entryDx=0;entryDy=0;fillColor=#0050ef;strokeColor=#001DBC;" edge="1" parent="1" source="V_cz3rUaaJLSFiW3fjFY-79" target="V_cz3rUaaJLSFiW3fjFY-114">
          <mxGeometry relative="1" as="geometry"/>
        </mxCell>
        <mxCell id="V_cz3rUaaJLSFiW3fjFY-151" value="Read" style="text;html=1;align=center;verticalAlign=middle;resizable=0;points=[];;labelBackgroundColor=#ffffff;fontColor=#0000FF;" vertex="1" connectable="0" parent="V_cz3rUaaJLSFiW3fjFY-125">
          <mxGeometry x="0.1701" y="-1" relative="1" as="geometry">
            <mxPoint x="-1" as="offset"/>
          </mxGeometry>
        </mxCell>
        <mxCell id="V_cz3rUaaJLSFiW3fjFY-128" style="edgeStyle=none;rounded=0;orthogonalLoop=1;jettySize=auto;html=1;entryX=1;entryY=0.25;entryDx=0;entryDy=0;fillColor=#0050ef;strokeColor=#001DBC;" edge="1" parent="1" source="V_cz3rUaaJLSFiW3fjFY-79" target="V_cz3rUaaJLSFiW3fjFY-84">
          <mxGeometry relative="1" as="geometry"/>
        </mxCell>
        <mxCell id="V_cz3rUaaJLSFiW3fjFY-155" value="Read" style="text;html=1;align=center;verticalAlign=middle;resizable=0;points=[];;labelBackgroundColor=#ffffff;fontColor=#0000FF;" vertex="1" connectable="0" parent="V_cz3rUaaJLSFiW3fjFY-128">
          <mxGeometry x="-0.1004" y="1" relative="1" as="geometry">
            <mxPoint as="offset"/>
          </mxGeometry>
        </mxCell>
        <mxCell id="V_cz3rUaaJLSFiW3fjFY-79" value="push_subscription" style="shadow=0;dashed=0;html=1;strokeColor=none;fillColor=#505050;labelPosition=center;verticalLabelPosition=bottom;verticalAlign=top;outlineConnect=0;align=center;shape=mxgraph.office.databases.database;" vertex="1" parent="1">
          <mxGeometry x="720" y="340" width="60" height="44.5" as="geometry"/>
        </mxCell>
        <mxCell id="V_cz3rUaaJLSFiW3fjFY-127" style="edgeStyle=none;rounded=0;orthogonalLoop=1;jettySize=auto;html=1;entryX=1;entryY=0.5;entryDx=0;entryDy=0;fillColor=#0050ef;strokeColor=#001DBC;" edge="1" parent="1" source="V_cz3rUaaJLSFiW3fjFY-80" target="V_cz3rUaaJLSFiW3fjFY-114">
          <mxGeometry relative="1" as="geometry">
            <mxPoint x="750" y="210" as="sourcePoint"/>
          </mxGeometry>
        </mxCell>
        <mxCell id="V_cz3rUaaJLSFiW3fjFY-163" value="Read" style="text;html=1;align=center;verticalAlign=middle;resizable=0;points=[];;labelBackgroundColor=#ffffff;fontColor=#0000FF;" vertex="1" connectable="0" parent="V_cz3rUaaJLSFiW3fjFY-127">
          <mxGeometry x="-0.3966" y="1" relative="1" as="geometry">
            <mxPoint x="-5.95" y="-4.48" as="offset"/>
          </mxGeometry>
        </mxCell>
        <mxCell id="V_cz3rUaaJLSFiW3fjFY-80" value="tribe_timeline" style="shadow=0;dashed=0;html=1;strokeColor=none;fillColor=#505050;labelPosition=center;verticalLabelPosition=bottom;verticalAlign=top;outlineConnect=0;align=center;shape=mxgraph.office.databases.database;" vertex="1" parent="1">
          <mxGeometry x="720" y="211.75" width="60" height="44.5" as="geometry"/>
        </mxCell>
        <mxCell id="V_cz3rUaaJLSFiW3fjFY-81" value="&lt;span style=&quot;white-space: nowrap&quot;&gt;読む&lt;br&gt;ホーム&lt;/span&gt;" style="rounded=1;whiteSpace=wrap;html=1;absoluteArcSize=1;arcSize=14;strokeWidth=2;" vertex="1" parent="1">
          <mxGeometry x="230" y="110" width="80" height="80" as="geometry"/>
        </mxCell>
        <mxCell id="V_cz3rUaaJLSFiW3fjFY-82" value="&lt;span style=&quot;white-space: nowrap&quot;&gt;ブログ面&lt;br&gt;単記事&lt;/span&gt;" style="rounded=1;whiteSpace=wrap;html=1;absoluteArcSize=1;arcSize=14;strokeWidth=2;" vertex="1" parent="1">
          <mxGeometry x="230" y="270" width="80" height="80" as="geometry"/>
        </mxCell>
        <mxCell id="V_cz3rUaaJLSFiW3fjFY-94" style="edgeStyle=none;rounded=0;orthogonalLoop=1;jettySize=auto;html=1;exitX=1;exitY=0.75;exitDx=0;exitDy=0;entryX=0.025;entryY=0.113;entryDx=0;entryDy=0;entryPerimeter=0;" edge="1" parent="1" source="V_cz3rUaaJLSFiW3fjFY-86" target="V_cz3rUaaJLSFiW3fjFY-83">
          <mxGeometry relative="1" as="geometry"/>
        </mxCell>
        <mxCell id="V_cz3rUaaJLSFiW3fjFY-95" value="&lt;span style=&quot;background-color: rgb(248 , 249 , 250)&quot;&gt;購読解除&lt;/span&gt;" style="text;html=1;align=center;verticalAlign=middle;resizable=0;points=[];;labelBackgroundColor=#ffffff;" vertex="1" connectable="0" parent="V_cz3rUaaJLSFiW3fjFY-94">
          <mxGeometry x="-0.5091" y="2" relative="1" as="geometry">
            <mxPoint x="51.730000000000004" y="12.240000000000002" as="offset"/>
          </mxGeometry>
        </mxCell>
        <mxCell id="V_cz3rUaaJLSFiW3fjFY-98" style="edgeStyle=none;rounded=0;orthogonalLoop=1;jettySize=auto;html=1;entryX=0;entryY=0.75;entryDx=0;entryDy=0;" edge="1" parent="1" source="V_cz3rUaaJLSFiW3fjFY-83" target="V_cz3rUaaJLSFiW3fjFY-88">
          <mxGeometry relative="1" as="geometry">
            <mxPoint x="280" y="490" as="sourcePoint"/>
          </mxGeometry>
        </mxCell>
        <mxCell id="V_cz3rUaaJLSFiW3fjFY-83" value="&lt;span style=&quot;white-space: nowrap&quot;&gt;編集面&lt;br&gt;購読管理&lt;/span&gt;" style="rounded=1;whiteSpace=wrap;html=1;absoluteArcSize=1;arcSize=14;strokeWidth=2;" vertex="1" parent="1">
          <mxGeometry x="230" y="460" width="80" height="80" as="geometry"/>
        </mxCell>
        <mxCell id="V_cz3rUaaJLSFiW3fjFY-84" value="&lt;span style=&quot;background-color: rgb(248 , 249 , 250)&quot;&gt;購読通知バッチ&lt;/span&gt;" style="shape=image;html=1;verticalAlign=top;verticalLabelPosition=bottom;labelBackgroundColor=#ffffff;imageAspect=0;aspect=fixed;image=https://cdn2.iconfinder.com/data/icons/ecqlipse2/FILE---BATCH.png" vertex="1" parent="1">
          <mxGeometry x="460" y="630" width="60" height="60" as="geometry"/>
        </mxCell>
        <mxCell id="V_cz3rUaaJLSFiW3fjFY-89" style="edgeStyle=none;rounded=0;orthogonalLoop=1;jettySize=auto;html=1;exitX=-0.037;exitY=0.875;exitDx=0;exitDy=0;entryX=1;entryY=1;entryDx=0;entryDy=0;exitPerimeter=0;" edge="1" parent="1" source="V_cz3rUaaJLSFiW3fjFY-83" target="V_cz3rUaaJLSFiW3fjFY-86">
          <mxGeometry relative="1" as="geometry"/>
        </mxCell>
        <mxCell id="V_cz3rUaaJLSFiW3fjFY-91" value="&lt;span style=&quot;background-color: rgb(248 , 249 , 250)&quot;&gt;購読一覧&lt;/span&gt;" style="text;html=1;align=center;verticalAlign=middle;resizable=0;points=[];;labelBackgroundColor=#ffffff;" vertex="1" connectable="0" parent="V_cz3rUaaJLSFiW3fjFY-89">
          <mxGeometry x="-0.2213" y="2" relative="1" as="geometry">
            <mxPoint x="1.1499999999999986" y="-1.2300000000000004" as="offset"/>
          </mxGeometry>
        </mxCell>
        <mxCell id="V_cz3rUaaJLSFiW3fjFY-86" value="閲覧者" style="shape=image;html=1;verticalAlign=top;verticalLabelPosition=bottom;labelBackgroundColor=#ffffff;imageAspect=0;aspect=fixed;image=https://cdn2.iconfinder.com/data/icons/people-80/96/Picture1-128.png" vertex="1" parent="1">
          <mxGeometry x="40" y="400" width="40" height="40" as="geometry"/>
        </mxCell>
        <mxCell id="V_cz3rUaaJLSFiW3fjFY-88" value="&lt;span style=&quot;background-color: rgb(248 , 249 , 250)&quot;&gt;購読解除&lt;/span&gt;" style="shape=image;html=1;verticalAlign=top;verticalLabelPosition=bottom;labelBackgroundColor=#ffffff;imageAspect=0;aspect=fixed;image=https://cdn2.iconfinder.com/data/icons/competitive-strategy-and-corporate-training/512/196_Api_app_coding_developer_software_app_development-128.png" vertex="1" parent="1">
          <mxGeometry x="460" y="410" width="50" height="50" as="geometry"/>
        </mxCell>
        <mxCell id="V_cz3rUaaJLSFiW3fjFY-97" value="購読ブログ一覧取得" style="shape=image;html=1;verticalAlign=top;verticalLabelPosition=bottom;labelBackgroundColor=#ffffff;imageAspect=0;aspect=fixed;image=https://cdn2.iconfinder.com/data/icons/competitive-strategy-and-corporate-training/512/196_Api_app_coding_developer_software_app_development-128.png" vertex="1" parent="1">
          <mxGeometry x="460" y="496" width="50" height="50" as="geometry"/>
        </mxCell>
        <mxCell id="V_cz3rUaaJLSFiW3fjFY-99" style="edgeStyle=none;rounded=0;orthogonalLoop=1;jettySize=auto;html=1;exitX=1;exitY=0.75;exitDx=0;exitDy=0;fillColor=#a20025;strokeColor=#6F0000;" edge="1" parent="1" source="V_cz3rUaaJLSFiW3fjFY-88" target="V_cz3rUaaJLSFiW3fjFY-79">
          <mxGeometry relative="1" as="geometry">
            <mxPoint x="290" y="500" as="sourcePoint"/>
            <mxPoint x="345" y="527.5" as="targetPoint"/>
          </mxGeometry>
        </mxCell>
        <mxCell id="V_cz3rUaaJLSFiW3fjFY-159" value="Delete?&lt;br&gt;Update?" style="text;html=1;align=center;verticalAlign=middle;resizable=0;points=[];;labelBackgroundColor=#ffffff;fontColor=#CC0000;" vertex="1" connectable="0" parent="V_cz3rUaaJLSFiW3fjFY-99">
          <mxGeometry x="-0.1213" y="1" relative="1" as="geometry">
            <mxPoint as="offset"/>
          </mxGeometry>
        </mxCell>
        <mxCell id="V_cz3rUaaJLSFiW3fjFY-100" style="edgeStyle=none;rounded=0;orthogonalLoop=1;jettySize=auto;html=1;entryX=1;entryY=0.75;entryDx=0;entryDy=0;exitX=0;exitY=0.5;exitDx=0;exitDy=0;" edge="1" parent="1" source="V_cz3rUaaJLSFiW3fjFY-97" target="V_cz3rUaaJLSFiW3fjFY-83">
          <mxGeometry relative="1" as="geometry">
            <mxPoint x="345" y="457.5" as="sourcePoint"/>
            <mxPoint x="290" y="464.7368421052631" as="targetPoint"/>
          </mxGeometry>
        </mxCell>
        <mxCell id="V_cz3rUaaJLSFiW3fjFY-101" style="edgeStyle=none;rounded=0;orthogonalLoop=1;jettySize=auto;html=1;entryX=1;entryY=0.5;entryDx=0;entryDy=0;fillColor=#0050ef;strokeColor=#001DBC;" edge="1" parent="1" source="V_cz3rUaaJLSFiW3fjFY-79" target="V_cz3rUaaJLSFiW3fjFY-97">
          <mxGeometry relative="1" as="geometry">
            <mxPoint x="630" y="578" as="sourcePoint"/>
            <mxPoint x="395" y="457.5" as="targetPoint"/>
          </mxGeometry>
        </mxCell>
        <mxCell id="V_cz3rUaaJLSFiW3fjFY-154" value="Read" style="text;html=1;align=center;verticalAlign=middle;resizable=0;points=[];;labelBackgroundColor=#ffffff;fontColor=#0000FF;" vertex="1" connectable="0" parent="V_cz3rUaaJLSFiW3fjFY-101">
          <mxGeometry x="0.1099" y="1" relative="1" as="geometry">
            <mxPoint as="offset"/>
          </mxGeometry>
        </mxCell>
        <mxCell id="V_cz3rUaaJLSFiW3fjFY-102" value="&lt;span style=&quot;background-color: rgb(248 , 249 , 250)&quot;&gt;購読開始&lt;/span&gt;" style="shape=image;html=1;verticalAlign=top;verticalLabelPosition=bottom;labelBackgroundColor=#ffffff;imageAspect=0;aspect=fixed;image=https://cdn2.iconfinder.com/data/icons/competitive-strategy-and-corporate-training/512/196_Api_app_coding_developer_software_app_development-128.png" vertex="1" parent="1">
          <mxGeometry x="460" y="320" width="50" height="50" as="geometry"/>
        </mxCell>
        <mxCell id="V_cz3rUaaJLSFiW3fjFY-104" style="edgeStyle=none;rounded=0;orthogonalLoop=1;jettySize=auto;html=1;entryX=0;entryY=0.5;entryDx=0;entryDy=0;exitX=1;exitY=0.5;exitDx=0;exitDy=0;" edge="1" parent="1" source="V_cz3rUaaJLSFiW3fjFY-82" target="V_cz3rUaaJLSFiW3fjFY-102">
          <mxGeometry relative="1" as="geometry">
            <mxPoint x="290" y="464.7368421052631" as="sourcePoint"/>
            <mxPoint x="345" y="457.5" as="targetPoint"/>
          </mxGeometry>
        </mxCell>
        <mxCell id="V_cz3rUaaJLSFiW3fjFY-105" style="edgeStyle=none;rounded=0;orthogonalLoop=1;jettySize=auto;html=1;entryX=0;entryY=0.5;entryDx=0;entryDy=0;exitX=1;exitY=0.75;exitDx=0;exitDy=0;" edge="1" parent="1" source="V_cz3rUaaJLSFiW3fjFY-82" target="V_cz3rUaaJLSFiW3fjFY-88">
          <mxGeometry relative="1" as="geometry">
            <mxPoint x="290" y="370" as="sourcePoint"/>
            <mxPoint x="345" y="355" as="targetPoint"/>
          </mxGeometry>
        </mxCell>
        <mxCell id="V_cz3rUaaJLSFiW3fjFY-106" style="edgeStyle=none;rounded=0;orthogonalLoop=1;jettySize=auto;html=1;exitX=1;exitY=0.75;exitDx=0;exitDy=0;fillColor=#a20025;strokeColor=#6F0000;" edge="1" parent="1" source="V_cz3rUaaJLSFiW3fjFY-102" target="V_cz3rUaaJLSFiW3fjFY-79">
          <mxGeometry relative="1" as="geometry">
            <mxPoint x="395" y="457.5" as="sourcePoint"/>
            <mxPoint x="640" y="577.55" as="targetPoint"/>
          </mxGeometry>
        </mxCell>
        <mxCell id="V_cz3rUaaJLSFiW3fjFY-158" value="Create" style="text;html=1;align=center;verticalAlign=middle;resizable=0;points=[];;labelBackgroundColor=#ffffff;fontColor=#CC0000;" vertex="1" connectable="0" parent="V_cz3rUaaJLSFiW3fjFY-106">
          <mxGeometry x="-0.1143" relative="1" as="geometry">
            <mxPoint as="offset"/>
          </mxGeometry>
        </mxCell>
        <mxCell id="V_cz3rUaaJLSFiW3fjFY-107" style="edgeStyle=none;rounded=0;orthogonalLoop=1;jettySize=auto;html=1;entryX=1;entryY=0;entryDx=0;entryDy=0;exitX=0;exitY=0;exitDx=0;exitDy=0;" edge="1" parent="1" source="V_cz3rUaaJLSFiW3fjFY-82" target="V_cz3rUaaJLSFiW3fjFY-86">
          <mxGeometry relative="1" as="geometry">
            <mxPoint x="230" y="270" as="sourcePoint"/>
            <mxPoint x="90" y="430" as="targetPoint"/>
          </mxGeometry>
        </mxCell>
        <mxCell id="V_cz3rUaaJLSFiW3fjFY-108" value="&lt;span style=&quot;background-color: rgb(248 , 249 , 250)&quot;&gt;記事閲覧&lt;/span&gt;&lt;br style=&quot;background-color: rgb(248 , 249 , 250)&quot;&gt;&lt;span style=&quot;background-color: rgb(248 , 249 , 250)&quot;&gt;(購読状況)&lt;/span&gt;" style="text;html=1;align=center;verticalAlign=middle;resizable=0;points=[];;labelBackgroundColor=#ffffff;" vertex="1" connectable="0" parent="V_cz3rUaaJLSFiW3fjFY-107">
          <mxGeometry x="-0.5091" y="2" relative="1" as="geometry">
            <mxPoint x="-23.599999999999998" y="3.289999999999999" as="offset"/>
          </mxGeometry>
        </mxCell>
        <mxCell id="V_cz3rUaaJLSFiW3fjFY-109" style="edgeStyle=none;rounded=0;orthogonalLoop=1;jettySize=auto;html=1;exitX=1;exitY=0.25;exitDx=0;exitDy=0;entryX=0;entryY=0.5;entryDx=0;entryDy=0;" edge="1" parent="1" source="V_cz3rUaaJLSFiW3fjFY-86" target="V_cz3rUaaJLSFiW3fjFY-82">
          <mxGeometry relative="1" as="geometry">
            <mxPoint x="90" y="450" as="sourcePoint"/>
            <mxPoint x="210" y="490" as="targetPoint"/>
          </mxGeometry>
        </mxCell>
        <mxCell id="V_cz3rUaaJLSFiW3fjFY-110" value="&lt;span style=&quot;background-color: rgb(248 , 249 , 250)&quot;&gt;購読解除&lt;/span&gt;" style="text;html=1;align=center;verticalAlign=middle;resizable=0;points=[];;labelBackgroundColor=#ffffff;" vertex="1" connectable="0" parent="V_cz3rUaaJLSFiW3fjFY-109">
          <mxGeometry x="-0.2213" y="2" relative="1" as="geometry">
            <mxPoint x="32.870000000000005" y="-19.51" as="offset"/>
          </mxGeometry>
        </mxCell>
        <mxCell id="V_cz3rUaaJLSFiW3fjFY-111" style="edgeStyle=none;rounded=0;orthogonalLoop=1;jettySize=auto;html=1;exitX=1;exitY=0.5;exitDx=0;exitDy=0;entryX=0;entryY=0.913;entryDx=0;entryDy=0;entryPerimeter=0;exitPerimeter=0;" edge="1" parent="1" source="V_cz3rUaaJLSFiW3fjFY-86" target="V_cz3rUaaJLSFiW3fjFY-82">
          <mxGeometry relative="1" as="geometry">
            <mxPoint x="90" y="420" as="sourcePoint"/>
            <mxPoint x="210" y="370" as="targetPoint"/>
          </mxGeometry>
        </mxCell>
        <mxCell id="V_cz3rUaaJLSFiW3fjFY-112" value="&lt;span style=&quot;background-color: rgb(248 , 249 , 250)&quot;&gt;購読開始&lt;/span&gt;" style="text;html=1;align=center;verticalAlign=middle;resizable=0;points=[];;labelBackgroundColor=#ffffff;" vertex="1" connectable="0" parent="V_cz3rUaaJLSFiW3fjFY-111">
          <mxGeometry x="-0.2213" y="2" relative="1" as="geometry">
            <mxPoint x="32.19" y="-8.09" as="offset"/>
          </mxGeometry>
        </mxCell>
        <mxCell id="V_cz3rUaaJLSFiW3fjFY-114" value="フォロー・購読&lt;br&gt;新着記事一覧取得" style="shape=image;html=1;verticalAlign=top;verticalLabelPosition=bottom;labelBackgroundColor=#ffffff;imageAspect=0;aspect=fixed;image=https://cdn2.iconfinder.com/data/icons/competitive-strategy-and-corporate-training/512/196_Api_app_coding_developer_software_app_development-128.png" vertex="1" parent="1">
          <mxGeometry x="460" y="90" width="50" height="50" as="geometry"/>
        </mxCell>
        <mxCell id="V_cz3rUaaJLSFiW3fjFY-116" style="rounded=0;orthogonalLoop=1;jettySize=auto;html=1;exitX=0;exitY=0.5;exitDx=0;exitDy=0;" edge="1" parent="1" source="V_cz3rUaaJLSFiW3fjFY-115" target="V_cz3rUaaJLSFiW3fjFY-82">
          <mxGeometry relative="1" as="geometry"/>
        </mxCell>
        <mxCell id="V_cz3rUaaJLSFiW3fjFY-115" value="&lt;span style=&quot;background-color: rgb(248 , 249 , 250)&quot;&gt;購読状況取得&lt;br&gt;(単記事表示に必要な&lt;br&gt;情報を総取得)&lt;br&gt;&lt;/span&gt;" style="shape=image;html=1;verticalAlign=top;verticalLabelPosition=bottom;labelBackgroundColor=#ffffff;imageAspect=0;aspect=fixed;image=https://cdn2.iconfinder.com/data/icons/competitive-strategy-and-corporate-training/512/196_Api_app_coding_developer_software_app_development-128.png" vertex="1" parent="1">
          <mxGeometry x="460" y="190" width="50" height="50" as="geometry"/>
        </mxCell>
        <mxCell id="V_cz3rUaaJLSFiW3fjFY-119" style="rounded=0;orthogonalLoop=1;jettySize=auto;html=1;exitX=0;exitY=0.5;exitDx=0;exitDy=0;entryX=1;entryY=0.5;entryDx=0;entryDy=0;" edge="1" parent="1" source="V_cz3rUaaJLSFiW3fjFY-114" target="V_cz3rUaaJLSFiW3fjFY-81">
          <mxGeometry relative="1" as="geometry">
            <mxPoint x="398" y="269" as="sourcePoint"/>
            <mxPoint x="290" y="342.7027027027027" as="targetPoint"/>
          </mxGeometry>
        </mxCell>
        <mxCell id="V_cz3rUaaJLSFiW3fjFY-141" value="1656" style="text;html=1;align=center;verticalAlign=middle;resizable=0;points=[];;autosize=1;fillColor=#d5e8d4;strokeColor=#82b366;fontColor=#009900;fontStyle=1" vertex="1" parent="1">
          <mxGeometry x="430" y="80" width="40" height="20" as="geometry"/>
        </mxCell>
        <mxCell id="V_cz3rUaaJLSFiW3fjFY-142" value="1653,1654" style="text;html=1;align=center;verticalAlign=middle;resizable=0;points=[];;autosize=1;fillColor=#d5e8d4;strokeColor=#82b366;fontColor=#009900;fontStyle=1" vertex="1" parent="1">
          <mxGeometry x="415" y="184" width="70" height="20" as="geometry"/>
        </mxCell>
        <mxCell id="V_cz3rUaaJLSFiW3fjFY-144" value="1649" style="text;html=1;align=center;verticalAlign=middle;resizable=0;points=[];;autosize=1;fillColor=#d5e8d4;strokeColor=#82b366;fontColor=#009900;fontStyle=1" vertex="1" parent="1">
          <mxGeometry x="430" y="310" width="40" height="20" as="geometry"/>
        </mxCell>
        <mxCell id="V_cz3rUaaJLSFiW3fjFY-145" value="1655" style="text;html=1;align=center;verticalAlign=middle;resizable=0;points=[];;autosize=1;fillColor=#d5e8d4;strokeColor=#82b366;fontColor=#009900;fontStyle=1" vertex="1" parent="1">
          <mxGeometry x="433" y="400" width="40" height="20" as="geometry"/>
        </mxCell>
        <mxCell id="V_cz3rUaaJLSFiW3fjFY-146" value="1652" style="text;html=1;align=center;verticalAlign=middle;resizable=0;points=[];;autosize=1;fillColor=#d5e8d4;strokeColor=#82b366;fontColor=#009900;fontStyle=1" vertex="1" parent="1">
          <mxGeometry x="433" y="486" width="40" height="20" as="geometry"/>
        </mxCell>
        <mxCell id="V_cz3rUaaJLSFiW3fjFY-147" value="1658" style="text;html=1;align=center;verticalAlign=middle;resizable=0;points=[];;autosize=1;fillColor=#d5e8d4;strokeColor=#82b366;fontColor=#009900;fontStyle=1" vertex="1" parent="1">
          <mxGeometry x="430" y="630" width="40" height="20" as="geometry"/>
        </mxCell>
        <mxCell id="V_cz3rUaaJLSFiW3fjFY-150" value="1645" style="text;html=1;align=center;verticalAlign=middle;resizable=0;points=[];;autosize=1;fillColor=#d5e8d4;strokeColor=#82b366;fontColor=#009900;fontStyle=1" vertex="1" parent="1">
          <mxGeometry x="920" y="200" width="40" height="20" as="geometry"/>
        </mxCell>
      </root>
    </mxGraphModel>
  </diagram>
</mxfile>
